<svg xmlns="http://www.w3.org/2000/svg" viewBox="0 0 320 400">
  <defs>
    <linearGradient id="bg" x1="0" y1="0" x2="1" y2="1">
      <stop offset="0" stop-color="#38bdf8" />
      <stop offset="1" stop-color="#0ea5e9" />
    </linearGradient>
    <linearGradient id="attire" x1="0" y1="0" x2="0" y2="1">
      <stop offset="0" stop-color="#1e3a8a" />
      <stop offset="1" stop-color="#1d4ed8" />
    </linearGradient>
    <linearGradient id="face" x1="0" y1="0" x2="1" y2="1">
      <stop offset="0" stop-color="#fde68a" />
      <stop offset="1" stop-color="#fbbf24" />
    </linearGradient>
    <linearGradient id="accent" x1="0" y1="0" x2="1" y2="1">
      <stop offset="0" stop-color="#f8fafc" />
      <stop offset="1" stop-color="#cbd5f5" />
    </linearGradient>
  </defs>
  <rect width="320" height="400" rx="28" fill="url(#bg)" />
  <circle cx="256" cy="104" r="68" fill="rgba(14, 165, 233, 0.32)" />
  <circle cx="72" cy="70" r="48" fill="rgba(59, 130, 246, 0.3)" />
  <g transform="translate(68 88)">
    <ellipse cx="92" cy="78" rx="70" ry="76" fill="url(#face)" />
    <path d="M30 178c20-40 58-66 94-66s74 26 94 66v80H30z" fill="url(#attire)" />
    <path d="M124 120c30 0 66 22 72 46l12 32-208-.4 12-32c6-24 40-46 72-46z" fill="#1f2937" opacity="0.74" />
    <path d="M92 44c32 0 60 24 60 52s-28 52-60 52-60-24-60-52 28-52 60-52z" fill="#fff7ed" opacity="0.94" />
    <path d="M48 68c16-32 52-50 92-48 26 2 44 12 58 26-18-34-52-56-96-56-50 0-88 28-100 72 18-6 32-4 46 6z" fill="#1e293b" opacity="0.88" />
    <path d="M92 144c18 0 34 6 42 16l-84-.2c8-10 24-16 42-16z" fill="url(#accent)" opacity="0.64" />
  </g>
</svg>
