<svg xmlns="http://www.w3.org/2000/svg" viewBox="0 0 320 400">
  <defs>
    <linearGradient id="bg" x1="0" y1="0" x2="1" y2="1">
      <stop offset="0" stop-color="#38bdf8" />
      <stop offset="1" stop-color="#2563eb" />
    </linearGradient>
    <linearGradient id="attire" x1="0" y1="0" x2="0" y2="1">
      <stop offset="0" stop-color="#0f172a" />
      <stop offset="1" stop-color="#1e293b" />
    </linearGradient>
    <linearGradient id="face" x1="0" y1="0" x2="1" y2="1">
      <stop offset="0" stop-color="#fef3c7" />
      <stop offset="1" stop-color="#fcd34d" />
    </linearGradient>
  </defs>
  <rect width="320" height="400" fill="url(#bg)" rx="28" />
  <circle cx="246" cy="94" r="58" fill="rgba(59, 130, 246, 0.28)" />
  <circle cx="78" cy="64" r="48" fill="rgba(59, 130, 246, 0.32)" />
  <g transform="translate(70 86)">
    <ellipse cx="90" cy="78" rx="68" ry="74" fill="url(#face)" />
    <path d="M30 176c14-36 48-62 90-62s76 26 90 62v80H30z" fill="url(#attire)" />
    <path d="M120 120c30 0 64 22 70 46l10 28-200-.4 10-28c6-24 40-46 70-46z" fill="#1f2937" opacity="0.74" />
    <path d="M90 40c30 0 58 22 58 50s-26 50-58 50-58-22-58-50 26-50 58-50z" fill="#fde68a" opacity="0.94" />
    <path d="M46 66c16-28 50-46 88-44 22 2 36 10 50 22-16-32-48-50-90-50-46 0-82 24-94 64 18-6 32-4 46 8z" fill="#0f172a" opacity="0.9" />
  </g>
</svg>
