<svg xmlns="http://www.w3.org/2000/svg" viewBox="0 0 320 400">
  <defs>
    <linearGradient id="bg" x1="0" y1="0" x2="1" y2="1">
      <stop offset="0" stop-color="#0ea5e9" />
      <stop offset="1" stop-color="#38bdf8" />
    </linearGradient>
    <linearGradient id="attire" x1="0" y1="0" x2="0" y2="1">
      <stop offset="0" stop-color="#1f2937" />
      <stop offset="1" stop-color="#0f172a" />
    </linearGradient>
    <linearGradient id="face" x1="0" y1="0" x2="1" y2="1">
      <stop offset="0" stop-color="#fde68a" />
      <stop offset="1" stop-color="#fbbf24" />
    </linearGradient>
    <linearGradient id="accent" x1="0" y1="0" x2="1" y2="1">
      <stop offset="0" stop-color="#f8fafc" />
      <stop offset="1" stop-color="#94a3b8" />
    </linearGradient>
  </defs>
  <rect width="320" height="400" rx="28" fill="url(#bg)" />
  <circle cx="252" cy="104" r="66" fill="rgba(59, 130, 246, 0.32)" />
  <circle cx="70" cy="72" r="48" fill="rgba(14, 165, 233, 0.3)" />
  <g transform="translate(68 88)">
    <ellipse cx="92" cy="78" rx="70" ry="76" fill="url(#face)" />
    <path d="M30 178c20-40 58-66 94-66s74 26 94 66v80H30z" fill="url(#attire)" />
    <path d="M124 120c30 0 66 22 72 46l12 32-208-.4 12-32c6-24 40-46 72-46z" fill="#0f172a" opacity="0.76" />
    <path d="M92 44c32 0 60 24 60 52s-28 52-60 52-60-24-60-52 28-52 60-52z" fill="#fff7ed" opacity="0.94" />
    <path d="M48 68c16-32 52-50 92-48 24 2 42 12 56 24-18-32-52-54-96-54-50 0-88 28-100 70 18-6 34-4 48 8z" fill="#1f2937" opacity="0.88" />
    <path d="M92 142c18 0 32 6 40 16l-80-.2c8-10 22-16 40-16z" fill="url(#accent)" opacity="0.62" />
  </g>
</svg>
