<svg xmlns="http://www.w3.org/2000/svg" viewBox="0 0 320 400">
  <defs>
    <linearGradient id="bg" x1="0" y1="0" x2="1" y2="1">
      <stop offset="0" stop-color="#0ea5e9" />
      <stop offset="1" stop-color="#22d3ee" />
    </linearGradient>
    <linearGradient id="attire" x1="0" y1="0" x2="0" y2="1">
      <stop offset="0" stop-color="#1e293b" />
      <stop offset="1" stop-color="#0f172a" />
    </linearGradient>
    <linearGradient id="face" x1="0" y1="0" x2="1" y2="1">
      <stop offset="0" stop-color="#fde68a" />
      <stop offset="1" stop-color="#fbbf24" />
    </linearGradient>
    <linearGradient id="accent" x1="0" y1="0" x2="1" y2="1">
      <stop offset="0" stop-color="#f8fafc" />
      <stop offset="1" stop-color="#94a3b8" />
    </linearGradient>
  </defs>
  <rect width="320" height="400" rx="28" fill="url(#bg)" />
  <circle cx="248" cy="100" r="66" fill="rgba(14, 165, 233, 0.32)" />
  <circle cx="70" cy="70" r="46" fill="rgba(45, 212, 191, 0.28)" />
  <g transform="translate(68 88)">
    <ellipse cx="92" cy="78" rx="70" ry="76" fill="url(#face)" />
    <path d="M30 176c18-40 54-64 94-64s76 24 94 64v80H30z" fill="url(#attire)" />
    <path d="M124 120c30 0 66 22 72 46l12 32-208-.4 12-32c6-24 40-46 72-46z" fill="#111827" opacity="0.78" />
    <path d="M92 44c32 0 60 24 60 52s-28 52-60 52-60-24-60-52 28-52 60-52z" fill="#fff7ed" opacity="0.94" />
    <path d="M44 68c16-32 52-50 92-48 24 2 42 12 58 26-18-34-52-56-96-56-50 0-88 28-100 72 18-6 34-4 46 6z" fill="#0f172a" opacity="0.88" />
    <path d="M92 144c16 0 30 6 38 16l-76 .2c8-10 22-16 38-16z" fill="url(#accent)" opacity="0.6" />
  </g>
</svg>
