<svg xmlns="http://www.w3.org/2000/svg" viewBox="0 0 320 400">
  <defs>
    <linearGradient id="bg" x1="0" y1="0" x2="1" y2="1">
      <stop offset="0" stop-color="#22d3ee" />
      <stop offset="1" stop-color="#0ea5e9" />
    </linearGradient>
    <linearGradient id="attire" x1="0" y1="0" x2="0" y2="1">
      <stop offset="0" stop-color="#0f172a" />
      <stop offset="1" stop-color="#1e40af" />
    </linearGradient>
    <linearGradient id="face" x1="0" y1="0" x2="1" y2="1">
      <stop offset="0" stop-color="#fef3c7" />
      <stop offset="1" stop-color="#fcd34d" />
    </linearGradient>
  </defs>
  <rect width="320" height="400" rx="28" fill="url(#bg)" />
  <circle cx="244" cy="92" r="62" fill="rgba(59, 130, 246, 0.28)" />
  <circle cx="76" cy="76" r="50" fill="rgba(14, 165, 233, 0.3)" />
  <g transform="translate(66 90)">
    <ellipse cx="94" cy="78" rx="70" ry="76" fill="url(#face)" />
    <path d="M26 178c20-44 58-68 102-68s82 24 102 68v78H26z" fill="url(#attire)" />
    <path d="M130 122c34 0 70 24 78 48l12 32-220-.4 12-32c8-24 44-48 78-48z" fill="#111827" opacity="0.78" />
    <path d="M94 42c34 0 62 24 62 52s-28 52-62 52-62-24-62-52 28-52 62-52z" fill="#fff7ed" opacity="0.94" />
    <path d="M50 68c18-32 54-52 96-50 26 2 44 12 60 28-18-36-54-58-102-58-54 0-94 30-106 76 20-6 36-4 52 4z" fill="#0f172a" opacity="0.9" />
  </g>
</svg>
