<svg xmlns="http://www.w3.org/2000/svg" viewBox="0 0 320 400">
  <defs>
    <linearGradient id="bg" x1="0" y1="0" x2="1" y2="1">
      <stop offset="0" stop-color="#020617" />
      <stop offset="1" stop-color="#0ea5e9" />
    </linearGradient>
    <linearGradient id="figure" x1="0.1" y1="0" x2="0.9" y2="1">
      <stop offset="0" stop-color="#f8fafc" />
      <stop offset="1" stop-color="#cbd5f5" />
    </linearGradient>
    <radialGradient id="glow" cx="0.8" cy="0.22" r="0.8">
      <stop offset="0" stop-color="#38bdf8" stop-opacity="0.8" />
      <stop offset="1" stop-color="#020617" stop-opacity="0" />
    </radialGradient>
  </defs>
  <rect width="320" height="400" rx="28" fill="url(#bg)" />
  <circle cx="250" cy="90" r="78" fill="url(#glow)" />
  <rect x="52" y="60" width="88" height="88" rx="28" fill="rgba(255, 255, 255, 0.08)" />
  <circle cx="160" cy="132" r="70" fill="#e2e8f0" />
  <path d="M92 288c0-56 30-96 68-96s68 40 68 96-30 96-68 96-68-40-68-96z" fill="url(#figure)" />
  <path d="M160 194c-34 0-60 22-64 56 18 12 40 18 64 18s46-6 64-18c-4-34-30-56-64-56z" fill="#0f172a" opacity="0.12" />
  <path d="M126 224c12-16 24-24 36-24s24 8 36 24c-12 8-24 12-36 12s-24-4-36-12z" fill="#1f2937" opacity="0.18" />
  <rect x="96" y="308" width="128" height="22" rx="11" fill="rgba(15, 23, 42, 0.18)" />
  <rect x="112" y="336" width="100" height="18" rx="9" fill="rgba(15, 23, 42, 0.22)" />
</svg>
