<svg xmlns="http://www.w3.org/2000/svg" viewBox="0 0 320 400">
  <defs>
    <linearGradient id="bg" x1="0" y1="0" x2="1" y2="1">
      <stop offset="0" stop-color="#020617" />
      <stop offset="1" stop-color="#22d3ee" />
    </linearGradient>
    <linearGradient id="figure" x1="0" y1="0" x2="1" y2="1">
      <stop offset="0" stop-color="#f8fafc" />
      <stop offset="1" stop-color="#bae6fd" />
    </linearGradient>
    <radialGradient id="halo" cx="0.2" cy="0.2" r="0.8">
      <stop offset="0" stop-color="#38bdf8" stop-opacity="0.75" />
      <stop offset="1" stop-color="#020617" stop-opacity="0" />
    </radialGradient>
  </defs>
  <rect width="320" height="400" rx="28" fill="url(#bg)" />
  <circle cx="82" cy="90" r="78" fill="url(#halo)" />
  <rect x="232" y="62" width="72" height="72" rx="24" fill="rgba(255, 255, 255, 0.1)" />
  <circle cx="160" cy="132" r="72" fill="#e2e8f0" />
  <path d="M96 292c0-58 30-100 64-100s64 42 64 100-30 94-64 94-64-36-64-94z" fill="url(#figure)" />
  <path d="M160 196c-32 0-58 22-62 56 18 12 38 18 62 18s44-6 62-18c-4-34-30-56-62-56z" fill="#0f172a" opacity="0.12" />
  <path d="M126 226c12-16 24-24 34-24s22 8 34 24c-10 8-22 12-34 12s-24-4-34-12z" fill="#1f2937" opacity="0.18" />
  <rect x="94" y="312" width="132" height="22" rx="11" fill="rgba(15, 23, 42, 0.2)" />
  <rect x="112" y="340" width="100" height="18" rx="9" fill="rgba(15, 23, 42, 0.24)" />
</svg>
