<svg xmlns="http://www.w3.org/2000/svg" viewBox="0 0 320 400">
  <defs>
    <linearGradient id="bg" x1="0" y1="0" x2="1" y2="1">
      <stop offset="0" stop-color="#020617" />
      <stop offset="1" stop-color="#475569" />
    </linearGradient>
    <linearGradient id="figure" x1="0" y1="0" x2="1" y2="1">
      <stop offset="0" stop-color="#f8fafc" />
      <stop offset="1" stop-color="#cbd5f5" />
    </linearGradient>
    <radialGradient id="accent" cx="0.7" cy="0.22" r="0.8">
      <stop offset="0" stop-color="#38bdf8" stop-opacity="0.6" />
      <stop offset="1" stop-color="#020617" stop-opacity="0" />
    </radialGradient>
  </defs>
  <rect width="320" height="400" rx="28" fill="url(#bg)" />
  <circle cx="238" cy="92" r="74" fill="url(#accent)" />
  <rect x="48" y="58" width="92" height="92" rx="28" fill="rgba(255, 255, 255, 0.08)" />
  <circle cx="160" cy="134" r="72" fill="#e2e8f0" />
  <path d="M94 292c0-58 30-100 66-100s66 42 66 100-30 96-66 96-66-38-66-96z" fill="url(#figure)" />
  <path d="M160 196c-32 0-58 22-62 56 18 12 38 18 62 18s44-6 62-18c-4-34-30-56-62-56z" fill="#0f172a" opacity="0.12" />
  <path d="M124 226c12-16 24-24 36-24s24 8 36 24c-12 8-24 12-36 12s-24-4-36-12z" fill="#1f2937" opacity="0.18" />
  <rect x="96" y="312" width="128" height="22" rx="11" fill="rgba(15, 23, 42, 0.2)" />
  <rect x="112" y="340" width="100" height="18" rx="9" fill="rgba(15, 23, 42, 0.24)" />
</svg>
