<svg xmlns="http://www.w3.org/2000/svg" viewBox="0 0 320 400">
  <defs>
    <linearGradient id="bg" x1="0" y1="0" x2="1" y2="1">
      <stop offset="0" stop-color="#020617" />
      <stop offset="1" stop-color="#1e3a8a" />
    </linearGradient>
    <linearGradient id="figure" x1="0.1" y1="0" x2="0.9" y2="1">
      <stop offset="0" stop-color="#f8fafc" />
      <stop offset="1" stop-color="#cbd5f5" />
    </linearGradient>
    <radialGradient id="glimmer" cx="0.24" cy="0.18" r="0.82">
      <stop offset="0" stop-color="#3b82f6" stop-opacity="0.8" />
      <stop offset="1" stop-color="#020617" stop-opacity="0" />
    </radialGradient>
  </defs>
  <rect width="320" height="400" rx="28" fill="url(#bg)" />
  <circle cx="90" cy="86" r="76" fill="url(#glimmer)" />
  <rect x="226" y="56" width="78" height="78" rx="26" fill="rgba(255, 255, 255, 0.1)" />
  <circle cx="160" cy="132" r="70" fill="#e2e8f0" />
  <path d="M94 288c0-56 30-96 66-96s66 40 66 96-30 98-66 98-66-42-66-98z" fill="url(#figure)" />
  <path d="M160 194c-32 0-58 22-62 56 18 12 38 18 62 18s44-6 62-18c-4-34-30-56-62-56z" fill="#0f172a" opacity="0.12" />
  <path d="M126 224c12-16 24-24 36-24s24 8 36 24c-12 8-24 12-36 12s-24-4-36-12z" fill="#1f2937" opacity="0.2" />
  <rect x="96" y="308" width="128" height="22" rx="11" fill="rgba(15, 23, 42, 0.2)" />
  <rect x="112" y="336" width="100" height="18" rx="9" fill="rgba(15, 23, 42, 0.24)" />
</svg>
