<svg xmlns="http://www.w3.org/2000/svg" viewBox="0 0 320 400">
  <defs>
    <linearGradient id="bg" x1="0" y1="0" x2="1" y2="1">
      <stop offset="0" stop-color="#020617" />
      <stop offset="1" stop-color="#fb7185" />
    </linearGradient>
    <linearGradient id="figure" x1="0" y1="0" x2="1" y2="1">
      <stop offset="0" stop-color="#ffe4e6" />
      <stop offset="1" stop-color="#fecdd3" />
    </linearGradient>
    <radialGradient id="flare" cx="0.78" cy="0.18" r="0.75">
      <stop offset="0" stop-color="#f43f5e" stop-opacity="0.85" />
      <stop offset="1" stop-color="#020617" stop-opacity="0" />
    </radialGradient>
  </defs>
  <rect width="320" height="400" rx="28" fill="url(#bg)" />
  <circle cx="248" cy="84" r="78" fill="url(#flare)" />
  <rect x="50" y="62" width="92" height="92" rx="28" fill="rgba(255, 255, 255, 0.1)" />
  <circle cx="160" cy="132" r="70" fill="#fff1f2" />
  <path d="M94 288c0-56 30-96 66-96s66 40 66 96-30 98-66 98-66-42-66-98z" fill="url(#figure)" />
  <path d="M160 194c-32 0-58 22-62 56 18 12 38 18 62 18s44-6 62-18c-4-34-30-56-62-56z" fill="#be123c" opacity="0.14" />
  <path d="M126 224c12-16 24-24 34-24s22 8 34 24c-10 8-22 12-34 12s-24-4-34-12z" fill="#9f1239" opacity="0.2" />
  <rect x="96" y="308" width="128" height="22" rx="11" fill="rgba(15, 23, 42, 0.2)" />
  <rect x="112" y="336" width="100" height="18" rx="9" fill="rgba(15, 23, 42, 0.24)" />
</svg>
