<svg xmlns="http://www.w3.org/2000/svg" viewBox="0 0 320 400">
  <defs>
    <linearGradient id="bg" x1="0" y1="0" x2="1" y2="1">
      <stop offset="0" stop-color="#0f172a" />
      <stop offset="1" stop-color="#ec4899" />
    </linearGradient>
    <linearGradient id="figure" x1="0.1" y1="0" x2="0.9" y2="1">
      <stop offset="0" stop-color="#f8fafc" />
      <stop offset="1" stop-color="#ffe4e6" />
    </linearGradient>
    <radialGradient id="accent" cx="0.72" cy="0.18" r="0.75">
      <stop offset="0" stop-color="#f97316" stop-opacity="0.85" />
      <stop offset="1" stop-color="#0f172a" stop-opacity="0" />
    </radialGradient>
  </defs>
  <rect width="320" height="400" rx="28" fill="url(#bg)" />
  <circle cx="246" cy="82" r="76" fill="url(#accent)" />
  <rect x="40" y="60" width="96" height="96" rx="30" fill="rgba(255, 255, 255, 0.08)" />
  <circle cx="160" cy="132" r="70" fill="#f8fafc" />
  <path d="M92 292c0-58 30-100 68-100s68 42 68 100-30 96-68 96-68-38-68-96z" fill="url(#figure)" />
  <path d="M160 196c-34 0-60 22-64 58 18 14 40 20 64 20s46-6 64-20c-4-36-30-58-64-58z" fill="#0f172a" opacity="0.12" />
  <path d="M126 226c12-16 24-24 34-24s22 8 34 24c-10 8-22 12-34 12s-24-4-34-12z" fill="#1f2937" opacity="0.2" />
  <rect x="96" y="312" width="128" height="22" rx="11" fill="rgba(15, 23, 42, 0.2)" />
  <rect x="112" y="340" width="100" height="18" rx="9" fill="rgba(15, 23, 42, 0.24)" />
</svg>
