<svg xmlns="http://www.w3.org/2000/svg" viewBox="0 0 320 400">
  <defs>
    <linearGradient id="bg" x1="0" y1="0" x2="1" y2="1">
      <stop offset="0" stop-color="#111827" />
      <stop offset="1" stop-color="#f59e0b" />
    </linearGradient>
    <linearGradient id="figure" x1="0" y1="0" x2="1" y2="1">
      <stop offset="0" stop-color="#fff7ed" />
      <stop offset="1" stop-color="#fed7aa" />
    </linearGradient>
    <radialGradient id="burst" cx="0.8" cy="0.2" r="0.7">
      <stop offset="0" stop-color="#facc15" stop-opacity="0.8" />
      <stop offset="1" stop-color="#111827" stop-opacity="0" />
    </radialGradient>
  </defs>
  <rect width="320" height="400" rx="28" fill="url(#bg)" />
  <circle cx="252" cy="82" r="78" fill="url(#burst)" />
  <rect x="46" y="54" width="84" height="84" rx="26" fill="rgba(255, 255, 255, 0.1)" />
  <circle cx="160" cy="130" r="70" fill="#fff7ed" />
  <path d="M90 286c0-58 30-98 70-98s70 40 70 98-30 98-70 98-70-40-70-98z" fill="url(#figure)" />
  <path d="M160 192c-34 0-60 22-64 56 18 12 40 18 64 18s46-6 64-18c-4-34-30-56-64-56z" fill="#1f2937" opacity="0.12" />
  <path d="M124 222c12-16 24-24 36-24s24 8 36 24c-12 8-24 12-36 12s-24-4-36-12z" fill="#1f2937" opacity="0.18" />
  <rect x="94" y="308" width="132" height="22" rx="11" fill="rgba(15, 23, 42, 0.18)" />
  <rect x="112" y="336" width="100" height="18" rx="9" fill="rgba(15, 23, 42, 0.24)" />
</svg>
